<?xml version="1.0" encoding="UTF-8" standalone="no"?>
<!DOCTYPE svg PUBLIC "-//W3C//DTD SVG 1.1//EN" "http://www.w3.org/Graphics/SVG/1.1/DTD/svg11.dtd">
<!-- Generated by graphviz version 2.40.1 (20161225.0304)
 -->
<!-- Title: static_call_graph Pages: 1 -->
<svg width="529pt" height="860pt"
    viewBox="0.00 0.00 528.66 860.00" xmlns="http://www.w3.org/2000/svg"
    xmlns:xlink="http://www.w3.org/1999/xlink">
    <g id="graph0" class="graph" transform="scale(1 1) rotate(0) translate(4 856)">
        <title>static_call_graph</title>
        <polygon fill="#ffffff" stroke="transparent"
            points="-4,4 -4,-856 524.6564,-856 524.6564,4 -4,4" />
        <!-- main_begin -->
        <g id="node1" class="node">
            <title>main_begin</title>
            <ellipse fill="none" stroke="#000000" cx="331" cy="-834" rx="60.8872" ry="18" />
            <text text-anchor="middle" x="331" y="-829.8" font-family="Arial" font-size="14.00"
                fill="#000000">main_begin</text>
        </g>
        <!-- edge_detect_set_smooth_filter -->
        <g id="node2" class="node">
            <title>edge_detect_set_smooth_filter</title>
            <polygon fill="none" stroke="#000000"
                points="235.9,-657.6 28.1,-657.6 28.1,-621.6 235.9,-621.6 235.9,-657.6" />
            <text text-anchor="middle" x="132" y="-635.4" font-family="Arial" font-size="14.00"
                fill="#000000">edge_detect_set_smooth_filter</text>
        </g>
        <!-- main_begin&#45;&gt;edge_detect_set_smooth_filter -->
        <g id="edge2" class="edge">
            <title>main_begin&#45;&gt;edge_detect_set_smooth_filter</title>
            <path fill="none" stroke="#000000"
                d="M323.7215,-816.0504C312.4519,-790.0611 288.6282,-741.6507 256,-710.4 235.2957,-690.5698 207.9919,-674.2074 184.2766,-662.2266" />
            <polygon fill="#000000" stroke="#000000"
                points="185.5644,-658.9597 175.046,-657.6892 182.4764,-665.2417 185.5644,-658.9597" />
            <text text-anchor="middle" x="299.6038" y="-724.2" font-family="Consolas"
                font-size="14.00" fill="#000000">filter</text>
        </g>
        <!-- rgbToGrayscale -->
        <g id="node5" class="node">
            <title>rgbToGrayscale</title>
            <polygon fill="none" stroke="#000000"
                points="246.5674,-746.4 131.4326,-746.4 131.4326,-710.4 246.5674,-710.4 246.5674,-746.4" />
            <text text-anchor="middle" x="189" y="-724.2" font-family="Arial" font-size="14.00"
                fill="#000000">rgbToGrayscale</text>
        </g>
        <!-- main_begin&#45;&gt;rgbToGrayscale -->
        <g id="edge1" class="edge">
            <title>main_begin&#45;&gt;rgbToGrayscale</title>
            <path fill="none" stroke="#000000"
                d="M278.0413,-824.9099C259.2851,-819.5789 239.0939,-811.1817 223.9144,-798 211.3477,-787.0873 202.793,-770.5732 197.2979,-756.3694" />
            <polygon fill="#000000" stroke="#000000"
                points="200.4583,-754.8086 193.8236,-746.5483 193.8591,-757.1431 200.4583,-754.8086" />
            <text text-anchor="middle" x="257.0428" y="-785.4" font-family="Consolas"
                font-size="14.00" fill="#000000">image_rgb</text>
            <text text-anchor="middle" x="257.0428" y="-768.6" font-family="Consolas"
                font-size="14.00" fill="#000000">image_gray</text>
        </g>
        <!-- convolve2d_1 -->
        <g id="node6" class="node">
            <title>convolve2d_1</title>
            <polygon fill="none" stroke="#000000"
                points="325.7968,-568.8 218.2032,-568.8 218.2032,-532.8 325.7968,-532.8 325.7968,-568.8" />
            <text text-anchor="middle" x="272" y="-546.6" font-family="Arial" font-size="14.00"
                fill="#000000">convolve2d (1)</text>
        </g>
        <!-- main_begin&#45;&gt;convolve2d_1 -->
        <g id="edge5" class="edge">
            <title>main_begin&#45;&gt;convolve2d_1</title>
            <path fill="none" stroke="#000000"
                d="M334.6824,-815.9688C341.5265,-778.4556 353.4128,-689.8264 329,-621.6 322.9244,-604.6205 310.9141,-588.6915 299.4785,-576.2587" />
            <polygon fill="#000000" stroke="#000000"
                points="301.9447,-573.7738 292.4907,-568.9913 296.8988,-578.6256 301.9447,-573.7738" />
            <text text-anchor="middle" x="360.8906" y="-679.8" font-family="Consolas"
                font-size="14.00" fill="#000000">output</text>
        </g>
        <!-- convolve2d_3 -->
        <g id="node8" class="node">
            <title>convolve2d_3</title>
            <polygon fill="none" stroke="#000000"
                points="387.7968,-213.6 280.2032,-213.6 280.2032,-177.6 387.7968,-177.6 387.7968,-213.6" />
            <text text-anchor="middle" x="334" y="-191.4" font-family="Arial" font-size="14.00"
                fill="#000000">convolve2d (3)</text>
        </g>
        <!-- main_begin&#45;&gt;convolve2d_3 -->
        <g id="edge13" class="edge">
            <title>main_begin&#45;&gt;convolve2d_3</title>
            <path fill="none" stroke="#000000"
                d="M373.6581,-820.9078C413.5424,-805.7046 467,-776.3784 467,-728.4 467,-728.4 467,-728.4 467,-284.4 467,-247.8558 431.84,-225.4155 397.6758,-212.2366" />
            <polygon fill="#000000" stroke="#000000"
                points="398.6903,-208.8815 388.0962,-208.7611 396.3029,-215.4618 398.6903,-208.8815" />
            <text text-anchor="middle" x="493.8282" y="-502.2" font-family="Consolas"
                font-size="14.00" fill="#000000">temp_buf</text>
        </g>
        <!-- edge_detect_set_vert_filter -->
        <g id="node3" class="node">
            <title>edge_detect_set_vert_filter</title>
            <polygon fill="none" stroke="#000000"
                points="324.3345,-480 139.6655,-480 139.6655,-444 324.3345,-444 324.3345,-480" />
            <text text-anchor="middle" x="232" y="-457.8" font-family="Arial" font-size="14.00"
                fill="#000000">edge_detect_set_vert_filter</text>
        </g>
        <!-- edge_detect_set_smooth_filter&#45;&gt;edge_detect_set_vert_filter -->
        <g id="edge6" class="edge">
            <title>edge_detect_set_smooth_filter&#45;&gt;edge_detect_set_vert_filter</title>
            <path fill="none" stroke="#000000"
                d="M139.3233,-621.3361C148.2829,-599.6603 164.4173,-562.6905 181.7924,-532.8 190.7378,-517.4112 202.1178,-501.1497 211.781,-488.0973" />
            <polygon fill="#000000" stroke="#000000"
                points="214.6363,-490.1237 217.8404,-480.0249 209.038,-485.9214 214.6363,-490.1237" />
            <text text-anchor="middle" x="195.6038" y="-546.6" font-family="Consolas"
                font-size="14.00" fill="#000000">filter</text>
        </g>
        <!-- edge_detect_set_smooth_filter&#45;&gt;convolve2d_1 -->
        <g id="edge3" class="edge">
            <title>edge_detect_set_smooth_filter&#45;&gt;convolve2d_1</title>
            <path fill="none" stroke="#000000"
                d="M160.6689,-621.4157C182.0914,-607.8277 211.5602,-589.1361 234.7981,-574.3966" />
            <polygon fill="#000000" stroke="#000000"
                points="236.7996,-577.2719 243.3694,-568.96 233.0501,-571.3607 236.7996,-577.2719" />
            <text text-anchor="middle" x="228.6038" y="-591" font-family="Consolas"
                font-size="14.00" fill="#000000">filter</text>
        </g>
        <!-- edge_detect_set_horiz_filter -->
        <g id="node4" class="node">
            <title>edge_detect_set_horiz_filter</title>
            <polygon fill="none" stroke="#000000"
                points="323.8331,-302.4 132.1669,-302.4 132.1669,-266.4 323.8331,-266.4 323.8331,-302.4" />
            <text text-anchor="middle" x="228" y="-280.2" font-family="Arial" font-size="14.00"
                fill="#000000">edge_detect_set_horiz_filter</text>
        </g>
        <!-- edge_detect_set_vert_filter&#45;&gt;edge_detect_set_horiz_filter -->
        <g id="edge10" class="edge">
            <title>edge_detect_set_vert_filter&#45;&gt;edge_detect_set_horiz_filter</title>
            <path fill="none" stroke="#000000"
                d="M231.5944,-443.9934C230.8967,-413.012 229.4641,-349.406 228.6337,-312.5346" />
            <polygon fill="#000000" stroke="#000000"
                points="232.131,-312.3729 228.4066,-302.4543 225.1328,-312.5306 232.131,-312.3729" />
            <text text-anchor="middle" x="244.6038" y="-369" font-family="Consolas"
                font-size="14.00" fill="#000000">filter</text>
        </g>
        <!-- convolve2d_2 -->
        <g id="node7" class="node">
            <title>convolve2d_2</title>
            <polygon fill="none" stroke="#000000"
                points="157.7968,-391.2 50.2032,-391.2 50.2032,-355.2 157.7968,-355.2 157.7968,-391.2" />
            <text text-anchor="middle" x="104" y="-369" font-family="Arial" font-size="14.00"
                fill="#000000">convolve2d (2)</text>
        </g>
        <!-- edge_detect_set_vert_filter&#45;&gt;convolve2d_2 -->
        <g id="edge7" class="edge">
            <title>edge_detect_set_vert_filter&#45;&gt;convolve2d_2</title>
            <path fill="none" stroke="#000000"
                d="M205.7884,-443.8157C186.3747,-430.3474 159.7335,-411.8651 138.5761,-397.1871" />
            <polygon fill="#000000" stroke="#000000"
                points="140.388,-394.1844 130.1765,-391.36 136.3979,-399.9359 140.388,-394.1844" />
            <text text-anchor="middle" x="193.6038" y="-413.4" font-family="Consolas"
                font-size="14.00" fill="#000000">filter</text>
        </g>
        <!-- edge_detect_set_horiz_filter&#45;&gt;convolve2d_3 -->
        <g id="edge11" class="edge">
            <title>edge_detect_set_horiz_filter&#45;&gt;convolve2d_3</title>
            <path fill="none" stroke="#000000"
                d="M249.7065,-266.2157C265.4262,-253.0467 286.8681,-235.0841 304.192,-220.5712" />
            <polygon fill="#000000" stroke="#000000"
                points="306.9046,-222.8647 312.3226,-213.76 302.4093,-217.4988 306.9046,-222.8647" />
            <text text-anchor="middle" x="304.6038" y="-235.8" font-family="Consolas"
                font-size="14.00" fill="#000000">filter</text>
        </g>
        <!-- rgbToGrayscale&#45;&gt;edge_detect_set_smooth_filter -->
        <g id="edge18" class="edge">
            <title>rgbToGrayscale&#45;&gt;edge_detect_set_smooth_filter</title>
            <path fill="none" stroke="#000000" stroke-dasharray="1,5"
                d="M177.1896,-710.0006C169.1113,-697.4155 158.2708,-680.5271 149.2324,-666.4463" />
            <polygon fill="#000000" stroke="#000000"
                points="151.9476,-664.1969 143.6003,-657.672 146.0567,-667.9782 151.9476,-664.1969" />
        </g>
        <!-- rgbToGrayscale&#45;&gt;convolve2d_1 -->
        <g id="edge4" class="edge">
            <title>rgbToGrayscale&#45;&gt;convolve2d_1</title>
            <path fill="none" stroke="#000000"
                d="M206.8291,-710.3708C219.2264,-696.8812 235.2214,-677.4159 245,-657.6 257.3644,-632.5442 264.4098,-601.3041 268.1803,-579.0981" />
            <polygon fill="#000000" stroke="#000000"
                points="271.6739,-579.4131 269.7772,-568.9894 264.7596,-578.3208 271.6739,-579.4131" />
            <text text-anchor="middle" x="292.0428" y="-635.4" font-family="Consolas"
                font-size="14.00" fill="#000000">image_gray</text>
        </g>
        <!-- rgbToGrayscale&#45;&gt;convolve2d_2 -->
        <g id="edge9" class="edge">
            <title>rgbToGrayscale&#45;&gt;convolve2d_2</title>
            <path fill="none" stroke="#000000"
                d="M131.2668,-713.1523C75.6854,-696.7254 0,-668.9655 0,-639.6 0,-639.6 0,-639.6 0,-462 0,-432.4794 24.5343,-410.6867 49.7702,-396.0791" />
            <polygon fill="#000000" stroke="#000000"
                points="51.5868,-399.0751 58.6866,-391.211 48.2323,-392.9311 51.5868,-399.0751" />
            <text text-anchor="middle" x="33.0428" y="-546.6" font-family="Consolas"
                font-size="14.00" fill="#000000">image_gray</text>
        </g>
        <!-- convolve2d_1&#45;&gt;edge_detect_set_vert_filter -->
        <g id="edge19" class="edge">
            <title>convolve2d_1&#45;&gt;edge_detect_set_vert_filter</title>
            <path fill="none" stroke="#000000" stroke-dasharray="1,5"
                d="M263.712,-532.4006C258.097,-519.9353 250.5804,-503.2484 244.2745,-489.2494" />
            <polygon fill="#000000" stroke="#000000"
                points="247.4389,-487.7522 240.1405,-480.072 241.0565,-490.6272 247.4389,-487.7522" />
        </g>
        <!-- convolve2d_1&#45;&gt;convolve2d_2 -->
        <g id="edge8" class="edge">
            <title>convolve2d_1&#45;&gt;convolve2d_2</title>
            <path fill="none" stroke="#000000"
                d="M218.2646,-532.6965C168.995,-515.5595 102.5841,-490.8838 95.2188,-480 79.5965,-456.9148 85.2685,-424.2687 92.6603,-401.1605" />
            <polygon fill="#000000" stroke="#000000"
                points="96.0096,-402.1851 95.9915,-391.5903 89.3986,-399.884 96.0096,-402.1851" />
            <text text-anchor="middle" x="113.8906" y="-457.8" font-family="Consolas"
                font-size="14.00" fill="#000000">output</text>
        </g>
        <!-- convolve2d_1&#45;&gt;convolve2d_3 -->
        <g id="edge12" class="edge">
            <title>convolve2d_1&#45;&gt;convolve2d_3</title>
            <path fill="none" stroke="#000000"
                d="M303.6181,-532.4843C325.9795,-516.9179 352,-492.2954 352,-462 352,-462 352,-462 352,-284.4 352,-263.818 347.2978,-241.0779 342.7001,-223.7624" />
            <polygon fill="#000000" stroke="#000000"
                points="345.9628,-222.4342 339.8939,-213.7498 339.2225,-224.3234 345.9628,-222.4342" />
            <text text-anchor="middle" x="369.8906" y="-369" font-family="Consolas"
                font-size="14.00" fill="#000000">output</text>
        </g>
        <!-- combthreshold -->
        <g id="node9" class="node">
            <title>combthreshold</title>
            <polygon fill="none" stroke="#000000"
                points="387.7968,-124.8 280.2032,-124.8 280.2032,-88.8 387.7968,-88.8 387.7968,-124.8" />
            <text text-anchor="middle" x="334" y="-102.6" font-family="Arial" font-size="14.00"
                fill="#000000">combthreshold</text>
        </g>
        <!-- convolve2d_1&#45;&gt;combthreshold -->
        <g id="edge14" class="edge">
            <title>convolve2d_1&#45;&gt;combthreshold</title>
            <path fill="none" stroke="#000000"
                d="M326.03,-540.2799C366.8906,-528.8187 416,-505.9101 416,-462 416,-462 416,-462 416,-195.6 416,-169.8228 409.0158,-162.163 392,-142.8 388.1409,-138.4086 383.6156,-134.3729 378.8241,-130.7189" />
            <polygon fill="#000000" stroke="#000000"
                points="380.7758,-127.8128 370.5795,-124.9344 376.7554,-133.5431 380.7758,-127.8128" />
            <text text-anchor="middle" x="433.8906" y="-324.6" font-family="Consolas"
                font-size="14.00" fill="#000000">output</text>
        </g>
        <!-- convolve2d_2&#45;&gt;edge_detect_set_horiz_filter -->
        <g id="edge20" class="edge">
            <title>convolve2d_2&#45;&gt;edge_detect_set_horiz_filter</title>
            <path fill="none" stroke="#000000" stroke-dasharray="1,5"
                d="M129.3925,-355.0157C148.1995,-341.5474 174.0082,-323.0651 194.5044,-308.3871" />
            <polygon fill="#000000" stroke="#000000"
                points="196.549,-311.2279 202.6415,-302.56 192.4734,-305.5367 196.549,-311.2279" />
        </g>
        <!-- convolve2d_2&#45;&gt;combthreshold -->
        <g id="edge15" class="edge">
            <title>convolve2d_2&#45;&gt;combthreshold</title>
            <path fill="none" stroke="#000000"
                d="M103.329,-355.1715C103.3186,-332.7378 106.0789,-294.0215 123,-266.4 161.9952,-202.7454 236.5213,-155.5876 285.7465,-129.6363" />
            <polygon fill="#000000" stroke="#000000"
                points="287.6588,-132.5877 294.9325,-124.8843 284.4424,-126.3704 287.6588,-132.5877" />
            <text text-anchor="middle" x="181.0428" y="-235.8" font-family="Consolas"
                font-size="14.00" fill="#000000">image_gray</text>
        </g>
        <!-- convolve2d_3&#45;&gt;combthreshold -->
        <g id="edge16" class="edge">
            <title>convolve2d_3&#45;&gt;combthreshold</title>
            <path fill="none" stroke="#000000"
                d="M334,-177.2006C334,-165.0949 334,-149.0076 334,-135.2674" />
            <polygon fill="#000000" stroke="#000000"
                points="337.5001,-134.872 334,-124.872 330.5001,-134.8721 337.5001,-134.872" />
            <text text-anchor="middle" x="360.8282" y="-147" font-family="Consolas"
                font-size="14.00" fill="#000000">temp_buf</text>
        </g>
        <!-- main_end -->
        <g id="node10" class="node">
            <title>main_end</title>
            <ellipse fill="none" stroke="#000000" cx="334" cy="-18" rx="53.3649" ry="18" />
            <text text-anchor="middle" x="334" y="-13.8" font-family="Arial" font-size="14.00"
                fill="#000000">main_end</text>
        </g>
        <!-- combthreshold&#45;&gt;main_end -->
        <g id="edge17" class="edge">
            <title>combthreshold&#45;&gt;main_end</title>
            <path fill="none" stroke="#000000"
                d="M334,-88.4006C334,-76.2949 334,-60.2076 334,-46.4674" />
            <polygon fill="#000000" stroke="#000000"
                points="337.5001,-46.072 334,-36.072 330.5001,-46.0721 337.5001,-46.072" />
            <text text-anchor="middle" x="351.8906" y="-58.2" font-family="Consolas"
                font-size="14.00" fill="#000000">output</text>
        </g>
    </g>
</svg>