<?xml version="1.0" standalone="no"?>
<svg xmlns="http://www.w3.org/2000/svg" xmlns:xlink="http://www.w3.org/1999/xlink" width="1982pt" height="314pt" viewBox="0.00 0.00 1981.52 314.00">
<g id="graph0" class="graph" transform="translate(4,310) scale(1)" data-name="G">

<polygon fill="white" stroke="none" points="-4,4 -4,-310 1977.52,-310 1977.52,4 -4,4"/>
<g id="clust1" class="cluster" data-name="cluster_T0">

<polygon fill="lightpink" stroke="black" points="244.96,-8 244.96,-298 1758.39,-298 1758.39,-8 244.96,-8"/>
<text text-anchor="middle" x="1001.67" y="-281.4" font-family="Times,serif" font-size="14.00">top_level (x64)</text>
</g>
<g id="clust2" class="cluster" data-name="cluster_T1">

<polygon fill="bisque" stroke="black" points="347.27,-16 347.27,-206 1461.74,-206 1461.74,-16 347.27,-16"/>
<text text-anchor="middle" x="904.51" y="-189.4" font-family="Times,serif" font-size="14.00">correlateSAD_2D</text>
</g>
<!-- main_begin -->
<g id="node1" class="node" pointer-events="visible" data-name="main_begin">

<polygon fill="lightskyblue" stroke="black" points="80.09,-230 -0.09,-212 80.09,-194 160.26,-212 80.09,-230"/>
<text text-anchor="middle" x="80.09" y="-207.8" font-family="Times,serif" font-size="14.00">main_begin</text>
</g>
<!-- toplevel_src -->
<g id="node2" class="node" pointer-events="visible" data-name="toplevel_src">

<ellipse fill="lightpink" stroke="black" cx="270.96" cy="-212" rx="18" ry="18"/>
</g>
<!-- main_begin&#45;&gt;toplevel_src -->
<g id="edge1" class="edge" data-name="main_begin-&gt;toplevel_src">

<path fill="none" stroke="black" d="M162.28,-212C190.53,-212 220.39,-212 241.48,-212"/>
<polygon fill="black" stroke="black" points="241.3,-215.5 251.3,-212 241.3,-208.5 241.3,-215.5"/>
<text text-anchor="middle" x="206.56" y="-233" font-family="Times,serif" font-size="14.00">*Ileft</text>
<text text-anchor="middle" x="206.56" y="-216.2" font-family="Times,serif" font-size="14.00">*minSAD</text>
</g>
<!-- corrSAD2D_src -->
<g id="node3" class="node" pointer-events="visible" data-name="corrSAD2D_src">

<ellipse fill="bisque" stroke="black" cx="373.27" cy="-142" rx="18" ry="18"/>
</g>
<!-- toplevel_src&#45;&gt;corrSAD2D_src -->
<g id="edge2" class="edge" data-name="toplevel_src-&gt;corrSAD2D_src">

<path fill="none" stroke="black" d="M286.33,-201.97C302.57,-190.64 329.25,-172.02 348.58,-158.53"/>
<polygon fill="black" stroke="black" points="350.49,-161.47 356.69,-152.88 346.48,-155.73 350.49,-161.47"/>
<text text-anchor="middle" x="322.12" y="-191.2" font-family="Times,serif" font-size="14.00">*Ileft</text>
</g>
<!-- findDisparity -->
<g id="node11" class="node" pointer-events="visible" data-name="findDisparity">

<polygon fill="bisque" stroke="black" points="1630,-230 1539.69,-230 1539.69,-194 1630,-194 1630,-230"/>
<text text-anchor="middle" x="1584.84" y="-207.8" font-family="Times,serif" font-size="14.00">findDisparity</text>
</g>
<!-- toplevel_src&#45;&gt;findDisparity -->
<g id="edge13" class="edge" data-name="toplevel_src-&gt;findDisparity">

<path fill="none" stroke="black" d="M288.44,-217.36C308.16,-223.28 342.26,-232 372.27,-232 372.27,-232 372.27,-232 1436.74,-232 1467.08,-232 1500.61,-227.77 1527.99,-223.21"/>
<polygon fill="black" stroke="black" points="1528.57,-226.66 1537.83,-221.5 1527.37,-219.76 1528.57,-226.66"/>
<text text-anchor="middle" x="908.93" y="-253" font-family="Times,serif" font-size="14.00">minSAD</text>
<text text-anchor="middle" x="908.93" y="-236.2" font-family="Times,serif" font-size="14.00">&lt;&gt;retDisp</text>
</g>
<!-- outlined_fun_18 -->
<g id="node6" class="node" pointer-events="visible" data-name="outlined_fun_18">

<polygon fill="#76eec6" stroke="black" points="582.49,-60 474.4,-60 474.4,-24 582.49,-24 582.49,-60"/>
<text text-anchor="middle" x="528.44" y="-37.8" font-family="Times,serif" font-size="14.00">outlined_fun_18</text>
</g>
<!-- corrSAD2D_src&#45;&gt;outlined_fun_18 -->
<g id="edge3" class="edge" data-name="corrSAD2D_src-&gt;outlined_fun_18">

<path fill="none" stroke="black" d="M376.45,-123.94C379.83,-104.26 388.33,-73.45 409.27,-57.4 424.37,-45.83 443.86,-40.58 462.65,-38.61"/>
<polygon fill="black" stroke="black" points="462.67,-42.12 472.39,-37.9 462.16,-35.14 462.67,-42.12"/>
<text text-anchor="middle" x="432.72" y="-78" font-family="Times,serif" font-size="14.00">&lt;&gt;range</text>
<text text-anchor="middle" x="432.72" y="-61.2" font-family="Times,serif" font-size="14.00">&lt;&gt;Iright</text>
</g>
<!-- padarray4 -->
<g id="node7" class="node" pointer-events="visible" data-name="padarray4">

<polygon fill="#76eec6" stroke="black" points="739.03,-80 667.1,-80 667.1,-44 739.03,-44 739.03,-80"/>
<text text-anchor="middle" x="703.06" y="-57.8" font-family="Times,serif" font-size="14.00">padarray4</text>
</g>
<!-- corrSAD2D_src&#45;&gt;padarray4 -->
<g id="edge5" class="edge" data-name="corrSAD2D_src-&gt;padarray4">

<path fill="none" stroke="black" d="M390.1,-134.61C396.04,-132 402.89,-129.18 409.27,-127 509.93,-92.62 541.56,-109.74 644.51,-83 648.28,-82.02 652.15,-80.89 656.01,-79.68"/>
<polygon fill="black" stroke="black" points="656.98,-83.04 665.35,-76.56 654.76,-76.41 656.98,-83.04"/>
<text text-anchor="middle" x="528.44" y="-113.2" font-family="Times,serif" font-size="14.00">&lt;&gt;Iright_moved</text>
</g>
<!-- computeSAD -->
<g id="node8" class="node" pointer-events="visible" data-name="computeSAD">

<polygon fill="#76eec6" stroke="black" points="955.14,-113 862.71,-113 862.71,-77 955.14,-77 955.14,-113"/>
<text text-anchor="middle" x="908.93" y="-90.8" font-family="Times,serif" font-size="14.00">computeSAD</text>
</g>
<!-- corrSAD2D_src&#45;&gt;computeSAD -->
<g id="edge7" class="edge" data-name="corrSAD2D_src-&gt;computeSAD">

<path fill="none" stroke="black" d="M391.45,-143.96C428,-147.45 515.64,-152.2 582.71,-127 592.1,-123.47 591.31,-116.87 600.71,-113.4 645.12,-97.02 775.18,-94.5 851.09,-94.5"/>
<polygon fill="black" stroke="black" points="850.81,-98 860.82,-94.52 850.82,-91 850.81,-98"/>
<text text-anchor="middle" x="622.61" y="-134" font-family="Times,serif" font-size="14.00">*Ileft</text>
<text text-anchor="middle" x="622.61" y="-117.2" font-family="Times,serif" font-size="14.00">&lt;&gt;SAD</text>
</g>
<!-- integralImage2D2D -->
<g id="node9" class="node" pointer-events="visible" data-name="integralImage2D2D">

<polygon fill="#76eec6" stroke="black" points="1153.98,-137 1026.06,-137 1026.06,-101 1153.98,-101 1153.98,-137"/>
<text text-anchor="middle" x="1090.02" y="-114.8" font-family="Times,serif" font-size="14.00">integralImage2D2D</text>
</g>
<!-- corrSAD2D_src&#45;&gt;integralImage2D2D -->
<g id="edge9" class="edge" data-name="corrSAD2D_src-&gt;integralImage2D2D">

<path fill="none" stroke="black" d="M391.31,-144.93C397,-145.77 403.4,-146.58 409.27,-147 513.56,-154.41 540.06,-151.45 644.51,-147 696.7,-144.78 709.48,-140.28 761.61,-137 871.01,-130.11 898.69,-134.61 1008.04,-127 1010.21,-126.85 1012.41,-126.69 1014.62,-126.52"/>
<polygon fill="black" stroke="black" points="1014.64,-130.03 1024.32,-125.72 1014.07,-123.05 1014.64,-130.03"/>
<text text-anchor="middle" x="703.06" y="-150.2" font-family="Times,serif" font-size="14.00">&lt;&gt;integralImg</text>
</g>
<!-- finalSAD -->
<g id="node10" class="node" pointer-events="visible" data-name="finalSAD">

<polygon fill="#76eec6" stroke="black" points="1331.8,-173 1262.48,-173 1262.48,-137 1331.8,-137 1331.8,-173"/>
<text text-anchor="middle" x="1297.14" y="-150.8" font-family="Times,serif" font-size="14.00">finalSAD</text>
</g>
<!-- corrSAD2D_src&#45;&gt;finalSAD -->
<g id="edge11" class="edge" data-name="corrSAD2D_src-&gt;finalSAD">

<path fill="none" stroke="black" d="M390.44,-148.01C396.3,-149.93 403.01,-151.86 409.27,-153 520.18,-173.17 549.83,-163.89 662.51,-167 698.54,-168 710.27,-180.7 743.61,-167 754.02,-162.72 751.21,-153.48 761.61,-149.2 784.04,-139.98 1126.15,-149.68 1250.99,-153.55"/>
<polygon fill="black" stroke="black" points="1250.75,-157.05 1260.86,-153.86 1250.97,-150.05 1250.75,-157.05"/>
<text text-anchor="middle" x="803.22" y="-153.2" font-family="Times,serif" font-size="14.00">&lt;&gt;retSAD</text>
</g>
<!-- toplevel_target -->
<g id="node4" class="node" pointer-events="visible" data-name="toplevel_target">

<ellipse fill="rgb(255, 182, 193)" stroke="black" cx="1732.39" cy="-212" rx="18" ry="18"/>
</g>
<!-- main_end -->
<g id="node12" class="node" pointer-events="visible" data-name="main_end">

<polygon fill="lightskyblue" stroke="black" points="1904.06,-230 1834.64,-212 1904.06,-194 1973.49,-212 1904.06,-230"/>
<text text-anchor="middle" x="1904.06" y="-207.8" font-family="Times,serif" font-size="14.00">main_end</text>
</g>
<!-- toplevel_target&#45;&gt;main_end -->
<g id="edge16" class="edge" data-name="toplevel_target-&gt;main_end">

<path fill="none" stroke="black" d="M1750.59,-212C1767.55,-212 1794.73,-212 1821.48,-212"/>
<polygon fill="black" stroke="black" points="1821.37,-215.5 1831.37,-212 1821.37,-208.5 1821.37,-215.5"/>
<text text-anchor="middle" x="1792.49" y="-216.2" font-family="Times,serif" font-size="14.00">*retDisp</text>
</g>
<!-- corrSAD2D_target -->
<g id="node5" class="node" pointer-events="visible" data-name="corrSAD2D_target">

<ellipse fill="bisque" stroke="black" cx="1435.74" cy="-155" rx="18" ry="18"/>
</g>
<!-- corrSAD2D_target&#45;&gt;findDisparity -->
<g id="edge14" class="edge" data-name="corrSAD2D_target-&gt;findDisparity">

<path fill="none" stroke="black" d="M1453.05,-161.32C1471.28,-168.38 1501.78,-180.2 1528.74,-190.65"/>
<polygon fill="black" stroke="black" points="1527.25,-193.83 1537.84,-194.17 1529.78,-187.3 1527.25,-193.83"/>
<text text-anchor="middle" x="1496.63" y="-190.2" font-family="Times,serif" font-size="14.00">*retSAD</text>
</g>
<!-- outlined_fun_18&#45;&gt;padarray4 -->
<g id="edge4" class="edge" data-name="outlined_fun_18-&gt;padarray4">

<path fill="none" stroke="black" d="M582.89,-43.75C602.36,-44.83 624.49,-46.58 644.51,-49.4 648.11,-49.91 651.81,-50.51 655.53,-51.19"/>
<polygon fill="black" stroke="black" points="654.63,-54.58 665.12,-53.07 655.98,-47.71 654.63,-54.58"/>
<text text-anchor="middle" x="622.61" y="-70" font-family="Times,serif" font-size="14.00">*Iright</text>
<text text-anchor="middle" x="622.61" y="-53.2" font-family="Times,serif" font-size="14.00">*range</text>
</g>
<!-- padarray4&#45;&gt;computeSAD -->
<g id="edge6" class="edge" data-name="padarray4-&gt;computeSAD">

<path fill="none" stroke="black" d="M739.3,-64.16C767.92,-66.31 809.23,-70.31 844.82,-77.2 846.96,-77.61 849.13,-78.07 851.31,-78.55"/>
<polygon fill="black" stroke="black" points="850.29,-81.9 860.83,-80.81 851.91,-75.09 850.29,-81.9"/>
<text text-anchor="middle" x="803.22" y="-81.2" font-family="Times,serif" font-size="14.00">*Iright_moved</text>
</g>
<!-- computeSAD&#45;&gt;integralImage2D2D -->
<g id="edge8" class="edge" data-name="computeSAD-&gt;integralImage2D2D">

<path fill="none" stroke="black" d="M955.58,-101.12C973.51,-103.52 994.56,-106.34 1014.57,-109.02"/>
<polygon fill="black" stroke="black" points="1014,-112.48 1024.38,-110.34 1014.93,-105.54 1014,-112.48"/>
<text text-anchor="middle" x="990.54" y="-111.2" font-family="Times,serif" font-size="14.00">*SAD</text>
</g>
<!-- integralImage2D2D&#45;&gt;finalSAD -->
<g id="edge10" class="edge" data-name="integralImage2D2D-&gt;finalSAD">

<path fill="none" stroke="black" d="M1154.35,-121.25C1182.24,-123.27 1215.22,-127.07 1244.31,-134.2 1246.59,-134.76 1248.9,-135.4 1251.22,-136.1"/>
<polygon fill="black" stroke="black" points="1249.99,-139.37 1260.58,-139.25 1252.22,-132.74 1249.99,-139.37"/>
<text text-anchor="middle" x="1208.15" y="-138.2" font-family="Times,serif" font-size="14.00">*integralImg</text>
</g>
<!-- finalSAD&#45;&gt;corrSAD2D_target -->
<g id="edge12" class="edge" data-name="finalSAD-&gt;corrSAD2D_target">

<path fill="none" stroke="black" d="M1332.09,-149.9C1338.04,-149.19 1344.18,-148.58 1349.97,-148.2 1372.05,-146.76 1377.73,-146.08 1399.74,-148.2 1401.96,-148.41 1404.25,-148.7 1406.54,-149.04"/>
<polygon fill="black" stroke="black" points="1405.8,-152.46 1416.26,-150.76 1407.02,-145.57 1405.8,-152.46"/>
<text text-anchor="middle" x="1374.86" y="-152.2" font-family="Times,serif" font-size="14.00">*retSAD</text>
</g>
<!-- findDisparity&#45;&gt;toplevel_target -->
<g id="edge15" class="edge" data-name="findDisparity-&gt;toplevel_target">

<path fill="none" stroke="black" d="M1630.3,-212C1653.81,-212 1681.99,-212 1702.62,-212"/>
<polygon fill="black" stroke="black" points="1702.57,-215.5 1712.57,-212 1702.57,-208.5 1702.57,-215.5"/>
<text text-anchor="middle" x="1672.28" y="-216.2" font-family="Times,serif" font-size="14.00">*retDisp</text>
</g>
</g>
</svg>