<?xml version="1.0" encoding="UTF-8" standalone="no"?>
<!DOCTYPE svg PUBLIC "-//W3C//DTD SVG 1.1//EN" "http://www.w3.org/Graphics/SVG/1.1/DTD/svg11.dtd">
<!-- Generated by graphviz version 2.40.1 (20161225.0304)
 -->
<!-- Title: static_call_graph Pages: 1 -->
<svg width="352pt" height="762pt" viewBox="0.00 0.00 352.09 762.00" xmlns="http://www.w3.org/2000/svg" xmlns:xlink="http://www.w3.org/1999/xlink">
<g id="graph0" class="graph" transform="scale(1 1) rotate(0) translate(4 758)">
<title>static_call_graph</title>
<polygon fill="#ffffff" stroke="transparent" points="-4,4 -4,-758 348.0856,-758 348.0856,4 -4,4"/>
<!-- main_begin -->
<g id="node1" class="node">
<title>main_begin</title>
<ellipse fill="none" stroke="#000000" cx="146" cy="-736" rx="60.8872" ry="18"/>
<text text-anchor="middle" x="146" y="-731.8" font-family="Arial" font-size="14.00" fill="#000000">main_begin</text>
</g>
<!-- rgbToGrayscale -->
<g id="node2" class="node">
<title>rgbToGrayscale</title>
<polygon fill="none" stroke="#000000" points="304.5674,-610.4 189.4326,-610.4 189.4326,-574.4 304.5674,-574.4 304.5674,-610.4"/>
<text text-anchor="middle" x="247" y="-588.2" font-family="Arial" font-size="14.00" fill="#000000">rgbToGrayscale</text>
</g>
<!-- main_begin&#45;&gt;rgbToGrayscale -->
<g id="edge1" class="edge">
<title>main_begin-&gt;rgbToGrayscale</title>
<path fill="none" stroke="#000000" d="M158.5875,-718.1033C176.1273,-693.1655 208.0466,-647.7833 228.3533,-618.9115"/>
<polygon fill="#000000" stroke="#000000" points="231.3637,-620.7153 234.2539,-610.5222 225.638,-616.6882 231.3637,-620.7153"/>
<text text-anchor="middle" x="237.9355" y="-668.4" font-family="Consolas" font-size="14.00" fill="#000000">image_rgb</text>
<text text-anchor="middle" x="237.9355" y="-651.6" font-family="Consolas" font-size="14.00" fill="#000000">  {6116}</text>
</g>
<!-- convolve2d_smooth -->
<g id="node3" class="node">
<title>convolve2d_smooth</title>
<polygon fill="none" stroke="#000000" points="193.4846,-466.8 52.5154,-466.8 52.5154,-430.8 193.4846,-430.8 193.4846,-466.8"/>
<text text-anchor="middle" x="123" y="-444.6" font-family="Arial" font-size="14.00" fill="#000000">convolve2d_smooth</text>
</g>
<!-- main_begin&#45;&gt;convolve2d_smooth -->
<g id="edge2" class="edge">
<title>main_begin-&gt;convolve2d_smooth</title>
<path fill="none" stroke="#000000" d="M136.7775,-717.9145C130.3788,-703.6933 123,-683.1794 123,-664.2 123,-664.2 123,-664.2 123,-520.6 123,-506.3818 123,-490.5798 123,-477.428"/>
<polygon fill="#000000" stroke="#000000" points="126.5001,-477.0967 123,-467.0968 119.5001,-477.0968 126.5001,-477.0967"/>
<text text-anchor="middle" x="147.2186" y="-596.6" font-family="Consolas" font-size="14.00" fill="#000000">   output</text>
<text text-anchor="middle" x="147.2186" y="-579.8" font-family="Consolas" font-size="14.00" fill="#000000">  {1529}</text>
</g>
<!-- rgbToGrayscale&#45;&gt;convolve2d_smooth -->
<g id="edge3" class="edge">
<title>rgbToGrayscale-&gt;convolve2d_smooth</title>
<path fill="none" stroke="#000000" d="M230.5148,-574.1752C220.9293,-563.517 208.6579,-549.767 197.9144,-537.4 179.6994,-516.4326 159.3735,-492.3491 144.4946,-474.5887"/>
<polygon fill="#000000" stroke="#000000" points="147.1698,-472.3317 138.0688,-466.9073 141.8007,-476.8232 147.1698,-472.3317"/>
<text text-anchor="middle" x="230.0428" y="-524.8" font-family="Consolas" font-size="14.00" fill="#000000">image_gray</text>
<text text-anchor="middle" x="230.0428" y="-508" font-family="Consolas" font-size="14.00" fill="#000000">  {1529}</text>
</g>
<!-- convolve2d_vert -->
<g id="node4" class="node">
<title>convolve2d_vert</title>
<polygon fill="none" stroke="#000000" points="326.9186,-323.2 209.0814,-323.2 209.0814,-287.2 326.9186,-287.2 326.9186,-323.2"/>
<text text-anchor="middle" x="268" y="-301" font-family="Arial" font-size="14.00" fill="#000000">convolve2d_vert</text>
</g>
<!-- rgbToGrayscale&#45;&gt;convolve2d_vert -->
<g id="edge4" class="edge">
<title>rgbToGrayscale-&gt;convolve2d_vert</title>
<path fill="none" stroke="#000000" d="M259.7879,-574.1306C268.3272,-560.1441 278,-540.0158 278,-520.6 278,-520.6 278,-520.6 278,-377 278,-362.501 275.9749,-346.5112 273.7473,-333.3085"/>
<polygon fill="#000000" stroke="#000000" points="277.1788,-332.6154 271.9523,-323.3995 270.2909,-333.8632 277.1788,-332.6154"/>
<text text-anchor="middle" x="311.0428" y="-453" font-family="Consolas" font-size="14.00" fill="#000000">image_gray</text>
<text text-anchor="middle" x="311.0428" y="-436.2" font-family="Consolas" font-size="14.00" fill="#000000">  {1529}</text>
</g>
<!-- convolve2d_smooth&#45;&gt;convolve2d_vert -->
<g id="edge5" class="edge">
<title>convolve2d_smooth-&gt;convolve2d_vert</title>
<path fill="none" stroke="#000000" d="M141.4428,-430.748C152.3781,-420.0291 166.5,-406.16 179,-393.8 200.5689,-372.4726 224.98,-348.1586 242.7738,-330.4032"/>
<polygon fill="#000000" stroke="#000000" points="245.3621,-332.7649 249.967,-323.2231 240.4169,-327.8106 245.3621,-332.7649"/>
<text text-anchor="middle" x="235.2186" y="-381.2" font-family="Consolas" font-size="14.00" fill="#000000">   output</text>
<text text-anchor="middle" x="235.2186" y="-364.4" font-family="Consolas" font-size="14.00" fill="#000000">  {1529}</text>
</g>
<!-- convolve2d_horiz -->
<g id="node5" class="node">
<title>convolve2d_horiz</title>
<polygon fill="none" stroke="#000000" points="191.4172,-323.2 66.5828,-323.2 66.5828,-287.2 191.4172,-287.2 191.4172,-323.2"/>
<text text-anchor="middle" x="129" y="-301" font-family="Arial" font-size="14.00" fill="#000000">convolve2d_horiz</text>
</g>
<!-- convolve2d_smooth&#45;&gt;convolve2d_horiz -->
<g id="edge6" class="edge">
<title>convolve2d_smooth-&gt;convolve2d_horiz</title>
<path fill="none" stroke="#000000" d="M123.7599,-430.613C124.7833,-406.1199 126.6147,-362.2884 127.8186,-333.4753"/>
<polygon fill="#000000" stroke="#000000" points="131.3257,-333.3768 128.2463,-323.2394 124.3318,-333.0845 131.3257,-333.3768"/>
<text text-anchor="middle" x="151.2186" y="-381.2" font-family="Consolas" font-size="14.00" fill="#000000">   output</text>
<text text-anchor="middle" x="151.2186" y="-364.4" font-family="Consolas" font-size="14.00" fill="#000000">  {1529}</text>
</g>
<!-- combthreshold -->
<g id="node6" class="node">
<title>combthreshold</title>
<polygon fill="none" stroke="#000000" points="182.7968,-179.6 75.2032,-179.6 75.2032,-143.6 182.7968,-143.6 182.7968,-179.6"/>
<text text-anchor="middle" x="129" y="-157.4" font-family="Arial" font-size="14.00" fill="#000000">combthreshold</text>
</g>
<!-- convolve2d_smooth&#45;&gt;combthreshold -->
<g id="edge7" class="edge">
<title>convolve2d_smooth-&gt;combthreshold</title>
<path fill="none" stroke="#000000" d="M52.5198,-433.4647C25.0374,-422.963 0,-405.5587 0,-377 0,-377 0,-377 0,-233.4 0,-200.4159 32.5974,-182.4497 65.0196,-172.7377"/>
<polygon fill="#000000" stroke="#000000" points="66.3264,-176.0083 75.0398,-169.9812 64.4696,-169.2591 66.3264,-176.0083"/>
<text text-anchor="middle" x="24.2186" y="-309.4" font-family="Consolas" font-size="14.00" fill="#000000">   output</text>
<text text-anchor="middle" x="24.2186" y="-292.6" font-family="Consolas" font-size="14.00" fill="#000000">  {1529}</text>
</g>
<!-- convolve2d_vert&#45;&gt;combthreshold -->
<g id="edge8" class="edge">
<title>convolve2d_vert-&gt;combthreshold</title>
<path fill="none" stroke="#000000" d="M254.3873,-287.1082C240.148,-268.6312 216.7427,-239.4889 194,-216.6 183.5197,-206.0523 171.2404,-195.3024 160.1936,-186.1374"/>
<polygon fill="#000000" stroke="#000000" points="162.367,-183.3934 152.4111,-179.7696 157.9341,-188.811 162.367,-183.3934"/>
<text text-anchor="middle" x="256.0428" y="-237.6" font-family="Consolas" font-size="14.00" fill="#000000">image_gray</text>
<text text-anchor="middle" x="256.0428" y="-220.8" font-family="Consolas" font-size="14.00" fill="#000000">  {1529}</text>
</g>
<!-- convolve2d_horiz&#45;&gt;combthreshold -->
<g id="edge9" class="edge">
<title>convolve2d_horiz-&gt;combthreshold</title>
<path fill="none" stroke="#000000" d="M129,-287.013C129,-262.5199 129,-218.6884 129,-189.8753"/>
<polygon fill="#000000" stroke="#000000" points="132.5001,-189.6393 129,-179.6394 125.5001,-189.6394 132.5001,-189.6393"/>
<text text-anchor="middle" x="159.3282" y="-237.6" font-family="Consolas" font-size="14.00" fill="#000000">  temp_buf</text>
<text text-anchor="middle" x="159.3282" y="-220.8" font-family="Consolas" font-size="14.00" fill="#000000">  {1529}</text>
</g>
<!-- main_end -->
<g id="node7" class="node">
<title>main_end</title>
<ellipse fill="none" stroke="#000000" cx="129" cy="-18" rx="53.3649" ry="18"/>
<text text-anchor="middle" x="129" y="-13.8" font-family="Arial" font-size="14.00" fill="#000000">main_end</text>
</g>
<!-- combthreshold&#45;&gt;main_end -->
<g id="edge10" class="edge">
<title>combthreshold-&gt;main_end</title>
<path fill="none" stroke="#000000" d="M129,-143.413C129,-118.9199 129,-75.0884 129,-46.2753"/>
<polygon fill="#000000" stroke="#000000" points="132.5001,-46.0393 129,-36.0394 125.5001,-46.0394 132.5001,-46.0393"/>
<text text-anchor="middle" x="153.2186" y="-94" font-family="Consolas" font-size="14.00" fill="#000000">  output</text>
<text text-anchor="middle" x="153.2186" y="-77.2" font-family="Consolas" font-size="14.00" fill="#000000">  {1529}</text>
</g>
</g>
</svg>