<?xml version="1.0" encoding="UTF-8" standalone="no"?>
<!DOCTYPE svg PUBLIC "-//W3C//DTD SVG 1.1//EN" "http://www.w3.org/Graphics/SVG/1.1/DTD/svg11.dtd">
<!-- Generated by graphviz version 2.40.1 (20161225.0304)
 -->
<!-- Title: static_call_graph Pages: 1 -->
<svg width="486pt" height="922pt" viewBox="0.00 0.00 486.09 922.40" xmlns="http://www.w3.org/2000/svg" xmlns:xlink="http://www.w3.org/1999/xlink">
<g id="graph0" class="graph" transform="scale(1 1) rotate(0) translate(4 918.4)">
<title>static_call_graph</title>
<polygon fill="#ffffff" stroke="transparent" points="-4,4 -4,-918.4 482.0856,-918.4 482.0856,4 -4,4"/>
<!-- main_begin -->
<g id="node1" class="node">
<title>main_begin</title>
<ellipse fill="none" stroke="#000000" cx="237" cy="-896.4" rx="60.8872" ry="18"/>
<text text-anchor="middle" x="237" y="-892.2" font-family="Arial" font-size="14.00" fill="#000000">main_begin</text>
</g>
<!-- set_smooth_filter -->
<g id="node2" class="node">
<title>set_smooth_filter</title>
<polygon fill="none" stroke="#000000" points="233.0757,-754 110.9243,-754 110.9243,-718 233.0757,-718 233.0757,-754"/>
<text text-anchor="middle" x="172" y="-731.8" font-family="Arial" font-size="14.00" fill="#000000">set_smooth_filter</text>
</g>
<!-- main_begin&#45;&gt;set_smooth_filter -->
<g id="edge2" class="edge">
<title>main_begin-&gt;set_smooth_filter</title>
<path fill="none" stroke="#000000" d="M229.67,-878.3119C218.3566,-850.3939 196.5584,-796.6025 183.2422,-763.7423"/>
<polygon fill="#000000" stroke="#000000" points="186.4025,-762.2215 179.4029,-754.2681 179.9149,-764.8506 186.4025,-762.2215"/>
<text text-anchor="middle" x="231.1038" y="-820.4" font-family="Consolas" font-size="14.00" fill="#000000">  filter</text>
<text text-anchor="middle" x="231.1038" y="-803.6" font-family="Consolas" font-size="14.00" fill="#000000">  {0}</text>
</g>
<!-- rgbToGrayscale -->
<g id="node5" class="node">
<title>rgbToGrayscale</title>
<polygon fill="none" stroke="#000000" points="450.5674,-754 335.4326,-754 335.4326,-718 450.5674,-718 450.5674,-754"/>
<text text-anchor="middle" x="393" y="-731.8" font-family="Arial" font-size="14.00" fill="#000000">rgbToGrayscale</text>
</g>
<!-- main_begin&#45;&gt;rgbToGrayscale -->
<g id="edge1" class="edge">
<title>main_begin-&gt;rgbToGrayscale</title>
<path fill="none" stroke="#000000" d="M260.1398,-879.6122C267.6721,-873.8055 275.9127,-867.0744 283,-860.4 316.5207,-828.8324 351.0309,-788.2333 372.2486,-762.1591"/>
<polygon fill="#000000" stroke="#000000" points="375.0898,-764.2117 378.6523,-754.2337 369.645,-759.8123 375.0898,-764.2117"/>
<text text-anchor="middle" x="402.5114" y="-828.8" font-family="Consolas" font-size="14.00" fill="#000000">image_rgb {6116},</text>
<text text-anchor="middle" x="402.5114" y="-812" font-family="Consolas" font-size="14.00" fill="#000000">image_gray {1529}</text>
<text text-anchor="middle" x="402.5114" y="-795.2" font-family="Consolas" font-size="14.00" fill="#000000">  </text>
</g>
<!-- convolve2d_1 -->
<g id="node6" class="node">
<title>convolve2d_1</title>
<polygon fill="none" stroke="#000000" points="332.7968,-610.4 225.2032,-610.4 225.2032,-574.4 332.7968,-574.4 332.7968,-610.4"/>
<text text-anchor="middle" x="279" y="-588.2" font-family="Arial" font-size="14.00" fill="#000000">convolve2d (1)</text>
</g>
<!-- main_begin&#45;&gt;convolve2d_1 -->
<g id="edge5" class="edge">
<title>main_begin-&gt;convolve2d_1</title>
<path fill="none" stroke="#000000" d="M248.7339,-878.4162C257.8667,-862.6718 269,-838.8365 269,-816.2 269,-816.2 269,-816.2 269,-664.2 269,-649.701 271.0251,-633.7112 273.2527,-620.5085"/>
<polygon fill="#000000" stroke="#000000" points="276.7091,-621.0632 275.0477,-610.5995 269.8212,-619.8154 276.7091,-621.0632"/>
<text text-anchor="middle" x="293.2186" y="-740.2" font-family="Consolas" font-size="14.00" fill="#000000">  output</text>
<text text-anchor="middle" x="293.2186" y="-723.4" font-family="Consolas" font-size="14.00" fill="#000000">  {1529}</text>
</g>
<!-- convolve2d_3 -->
<g id="node8" class="node">
<title>convolve2d_3</title>
<polygon fill="none" stroke="#000000" points="198.7968,-323.2 91.2032,-323.2 91.2032,-287.2 198.7968,-287.2 198.7968,-323.2"/>
<text text-anchor="middle" x="145" y="-301" font-family="Arial" font-size="14.00" fill="#000000">convolve2d (3)</text>
</g>
<!-- main_begin&#45;&gt;convolve2d_3 -->
<g id="edge13" class="edge">
<title>main_begin-&gt;convolve2d_3</title>
<path fill="none" stroke="#000000" d="M181.434,-888.9037C111.384,-877.8638 0,-854.3167 0,-816.2 0,-816.2 0,-816.2 0,-377 0,-357.5778 42.3072,-338.1885 81.2163,-324.4634"/>
<polygon fill="#000000" stroke="#000000" points="82.6873,-327.6589 91.0074,-321.0994 80.4127,-321.0387 82.6873,-327.6589"/>
<text text-anchor="middle" x="30.3282" y="-596.6" font-family="Consolas" font-size="14.00" fill="#000000">  temp_buf</text>
<text text-anchor="middle" x="30.3282" y="-579.8" font-family="Consolas" font-size="14.00" fill="#000000">  {1529}</text>
</g>
<!-- set_vert_filter -->
<g id="node3" class="node">
<title>set_vert_filter</title>
<polygon fill="none" stroke="#000000" points="187.0098,-610.4 86.9902,-610.4 86.9902,-574.4 187.0098,-574.4 187.0098,-610.4"/>
<text text-anchor="middle" x="137" y="-588.2" font-family="Arial" font-size="14.00" fill="#000000">set_vert_filter</text>
</g>
<!-- set_smooth_filter&#45;&gt;set_vert_filter -->
<g id="edge6" class="edge">
<title>set_smooth_filter-&gt;set_vert_filter</title>
<path fill="none" stroke="#000000" d="M167.5672,-717.813C161.5712,-693.212 150.8201,-649.1018 143.799,-620.2954"/>
<polygon fill="#000000" stroke="#000000" points="147.1653,-619.3261 141.3968,-610.4394 140.3644,-620.9838 147.1653,-619.3261"/>
<text text-anchor="middle" x="171.7186" y="-668.4" font-family="Consolas" font-size="14.00" fill="#000000">filter</text>
<text text-anchor="middle" x="171.7186" y="-651.6" font-family="Consolas" font-size="14.00" fill="#000000">  {0}</text>
</g>
<!-- set_smooth_filter&#45;&gt;convolve2d_1 -->
<g id="edge3" class="edge">
<title>set_smooth_filter-&gt;convolve2d_1</title>
<path fill="none" stroke="#000000" d="M182.1705,-717.6907C192.6962,-699.297 210.056,-670.4502 227.7924,-647.4 235.6242,-637.2217 245.0044,-626.7389 253.5842,-617.6906"/>
<polygon fill="#000000" stroke="#000000" points="256.1294,-620.0935 260.5515,-610.4656 251.0905,-615.2344 256.1294,-620.0935"/>
<text text-anchor="middle" x="240.6038" y="-668.4" font-family="Consolas" font-size="14.00" fill="#000000">filter</text>
<text text-anchor="middle" x="240.6038" y="-651.6" font-family="Consolas" font-size="14.00" fill="#000000"> {0}</text>
</g>
<!-- set_horiz_filter -->
<g id="node4" class="node">
<title>set_horiz_filter</title>
<polygon fill="none" stroke="#000000" points="135.5084,-466.8 28.4916,-466.8 28.4916,-430.8 135.5084,-430.8 135.5084,-466.8"/>
<text text-anchor="middle" x="82" y="-444.6" font-family="Arial" font-size="14.00" fill="#000000">set_horiz_filter</text>
</g>
<!-- set_vert_filter&#45;&gt;set_horiz_filter -->
<g id="edge10" class="edge">
<title>set_vert_filter-&gt;set_horiz_filter</title>
<path fill="none" stroke="#000000" d="M115.0162,-574.3531C104.7616,-564.5788 93.5262,-551.606 87.5628,-537.4 79.5716,-518.3635 78.4203,-494.9898 79.1388,-477.0303"/>
<polygon fill="#000000" stroke="#000000" points="82.6416,-477.0916 79.7617,-466.8957 75.6548,-476.6621 82.6416,-477.0916"/>
<text text-anchor="middle" x="100.7186" y="-524.8" font-family="Consolas" font-size="14.00" fill="#000000">filter</text>
<text text-anchor="middle" x="100.7186" y="-508" font-family="Consolas" font-size="14.00" fill="#000000">  {0}</text>
</g>
<!-- convolve2d_2 -->
<g id="node7" class="node">
<title>convolve2d_2</title>
<polygon fill="none" stroke="#000000" points="345.7968,-466.8 238.2032,-466.8 238.2032,-430.8 345.7968,-430.8 345.7968,-466.8"/>
<text text-anchor="middle" x="292" y="-444.6" font-family="Arial" font-size="14.00" fill="#000000">convolve2d (2)</text>
</g>
<!-- set_vert_filter&#45;&gt;convolve2d_2 -->
<g id="edge7" class="edge">
<title>set_vert_filter-&gt;convolve2d_2</title>
<path fill="none" stroke="#000000" d="M156.6309,-574.213C184.1165,-548.7488 234.1639,-502.3824 265.1004,-473.7211"/>
<polygon fill="#000000" stroke="#000000" points="267.5715,-476.2031 272.5285,-466.8394 262.8142,-471.0681 267.5715,-476.2031"/>
<text text-anchor="middle" x="245.7186" y="-524.8" font-family="Consolas" font-size="14.00" fill="#000000">filter</text>
<text text-anchor="middle" x="245.7186" y="-508" font-family="Consolas" font-size="14.00" fill="#000000">  {0}</text>
</g>
<!-- set_horiz_filter&#45;&gt;convolve2d_3 -->
<g id="edge11" class="edge">
<title>set_horiz_filter-&gt;convolve2d_3</title>
<path fill="none" stroke="#000000" d="M89.979,-430.613C100.8192,-405.9041 120.2938,-361.5145 132.9277,-332.7172"/>
<polygon fill="#000000" stroke="#000000" points="136.2733,-333.803 137.0858,-323.2394 129.8631,-330.9907 136.2733,-333.803"/>
<text text-anchor="middle" x="133.6038" y="-381.2" font-family="Consolas" font-size="14.00" fill="#000000">filter</text>
<text text-anchor="middle" x="133.6038" y="-364.4" font-family="Consolas" font-size="14.00" fill="#000000"> {0}</text>
</g>
<!-- rgbToGrayscale&#45;&gt;convolve2d_1 -->
<g id="edge4" class="edge">
<title>rgbToGrayscale-&gt;convolve2d_1</title>
<path fill="none" stroke="#000000" d="M369.6945,-717.8686C357.5983,-707.7853 343.0612,-694.5589 331.9144,-681 316.3152,-662.0254 302.2477,-637.9626 292.5453,-619.7038"/>
<polygon fill="#000000" stroke="#000000" points="295.6039,-617.9993 287.8845,-610.7425 289.3936,-621.2293 295.6039,-617.9993"/>
<text text-anchor="middle" x="364.0428" y="-668.4" font-family="Consolas" font-size="14.00" fill="#000000">image_gray</text>
<text text-anchor="middle" x="364.0428" y="-651.6" font-family="Consolas" font-size="14.00" fill="#000000">  {1529}</text>
</g>
<!-- rgbToGrayscale&#45;&gt;convolve2d_2 -->
<g id="edge9" class="edge">
<title>rgbToGrayscale-&gt;convolve2d_2</title>
<path fill="none" stroke="#000000" d="M400.6185,-717.7551C405.9045,-703.4482 412,-682.8968 412,-664.2 412,-664.2 412,-664.2 412,-520.6 412,-490.8265 384.4614,-473.1017 355.7689,-462.7144"/>
<polygon fill="#000000" stroke="#000000" points="356.6259,-459.3108 346.0322,-459.4663 354.4107,-465.951 356.6259,-459.3108"/>
<text text-anchor="middle" x="445.0428" y="-596.6" font-family="Consolas" font-size="14.00" fill="#000000">image_gray</text>
<text text-anchor="middle" x="445.0428" y="-579.8" font-family="Consolas" font-size="14.00" fill="#000000">  {1529}</text>
</g>
<!-- convolve2d_1&#45;&gt;convolve2d_2 -->
<g id="edge8" class="edge">
<title>convolve2d_1-&gt;convolve2d_2</title>
<path fill="none" stroke="#000000" d="M280.6465,-574.213C282.8638,-549.7199 286.8318,-505.8884 289.4403,-477.0753"/>
<polygon fill="#000000" stroke="#000000" points="292.951,-477.1142 290.3669,-466.8394 285.9795,-476.483 292.951,-477.1142"/>
<text text-anchor="middle" x="311.2186" y="-524.8" font-family="Consolas" font-size="14.00" fill="#000000">output</text>
<text text-anchor="middle" x="311.2186" y="-508" font-family="Consolas" font-size="14.00" fill="#000000">  {1529}</text>
</g>
<!-- convolve2d_1&#45;&gt;convolve2d_3 -->
<g id="edge12" class="edge">
<title>convolve2d_1-&gt;convolve2d_3</title>
<path fill="none" stroke="#000000" d="M260.3334,-574.2264C237.9031,-551.2947 200.7707,-509.6487 180.5628,-466.8 169.5394,-443.426 156.4445,-373.0842 149.6349,-333.3401"/>
<polygon fill="#000000" stroke="#000000" points="153.0849,-332.7498 147.9659,-323.4737 146.1829,-333.9174 153.0849,-332.7498"/>
<text text-anchor="middle" x="204.2186" y="-453" font-family="Consolas" font-size="14.00" fill="#000000">output</text>
<text text-anchor="middle" x="204.2186" y="-436.2" font-family="Consolas" font-size="14.00" fill="#000000">  {1529}</text>
</g>
<!-- combthreshold -->
<g id="node9" class="node">
<title>combthreshold</title>
<polygon fill="none" stroke="#000000" points="326.7968,-179.6 219.2032,-179.6 219.2032,-143.6 326.7968,-143.6 326.7968,-179.6"/>
<text text-anchor="middle" x="273" y="-157.4" font-family="Arial" font-size="14.00" fill="#000000">combthreshold</text>
</g>
<!-- convolve2d_1&#45;&gt;combthreshold -->
<g id="edge14" class="edge">
<title>convolve2d_1-&gt;combthreshold</title>
<path fill="none" stroke="#000000" d="M330.67,-574.2859C352.9517,-562.8797 374,-545.5119 374,-520.6 374,-520.6 374,-520.6 374,-233.4 374,-210.5364 356.5943,-194.282 336.2342,-183.0896"/>
<polygon fill="#000000" stroke="#000000" points="337.552,-179.8341 327.0482,-178.4484 334.3953,-186.0819 337.552,-179.8341"/>
<text text-anchor="middle" x="398.2186" y="-381.2" font-family="Consolas" font-size="14.00" fill="#000000">output</text>
<text text-anchor="middle" x="398.2186" y="-364.4" font-family="Consolas" font-size="14.00" fill="#000000">  {1529}</text>
</g>
<!-- convolve2d_2&#45;&gt;combthreshold -->
<g id="edge15" class="edge">
<title>convolve2d_2-&gt;combthreshold</title>
<path fill="none" stroke="#000000" d="M284.3815,-430.5551C279.0955,-416.2482 273,-395.6968 273,-377 273,-377 273,-377 273,-233.4 273,-219.1818 273,-203.3798 273,-190.228"/>
<polygon fill="#000000" stroke="#000000" points="276.5001,-189.8967 273,-179.8968 269.5001,-189.8968 276.5001,-189.8967"/>
<text text-anchor="middle" x="309.5428" y="-309.4" font-family="Consolas" font-size="14.00" fill="#000000">  image_gray</text>
<text text-anchor="middle" x="309.5428" y="-292.6" font-family="Consolas" font-size="14.00" fill="#000000">  {1529}</text>
</g>
<!-- convolve2d_3&#45;&gt;combthreshold -->
<g id="edge16" class="edge">
<title>convolve2d_3-&gt;combthreshold</title>
<path fill="none" stroke="#000000" d="M155.1826,-287.1159C166.1995,-268.3845 184.9461,-238.8019 205.3436,-216.6 215.48,-205.5669 227.8917,-194.8438 239.3041,-185.8402"/>
<polygon fill="#000000" stroke="#000000" points="241.6064,-188.4847 247.3907,-179.6082 237.3334,-182.9401 241.6064,-188.4847"/>
<text text-anchor="middle" x="231.8282" y="-237.6" font-family="Consolas" font-size="14.00" fill="#000000">temp_buf</text>
<text text-anchor="middle" x="231.8282" y="-220.8" font-family="Consolas" font-size="14.00" fill="#000000">  {1529}</text>
</g>
<!-- main_end -->
<g id="node10" class="node">
<title>main_end</title>
<ellipse fill="none" stroke="#000000" cx="273" cy="-18" rx="53.3649" ry="18"/>
<text text-anchor="middle" x="273" y="-13.8" font-family="Arial" font-size="14.00" fill="#000000">main_end</text>
</g>
<!-- combthreshold&#45;&gt;main_end -->
<g id="edge17" class="edge">
<title>combthreshold-&gt;main_end</title>
<path fill="none" stroke="#000000" d="M273,-143.413C273,-118.9199 273,-75.0884 273,-46.2753"/>
<polygon fill="#000000" stroke="#000000" points="276.5001,-46.0393 273,-36.0394 269.5001,-46.0394 276.5001,-46.0393"/>
<text text-anchor="middle" x="297.2186" y="-94" font-family="Consolas" font-size="14.00" fill="#000000">   output</text>
<text text-anchor="middle" x="297.2186" y="-77.2" font-family="Consolas" font-size="14.00" fill="#000000">  {1529}</text>
</g>
</g>
</svg>