<?xml version="1.0" encoding="UTF-8" standalone="no"?>
<!DOCTYPE svg PUBLIC "-//W3C//DTD SVG 1.1//EN" "http://www.w3.org/Graphics/SVG/1.1/DTD/svg11.dtd">
<!-- Generated by graphviz version 2.40.1 (20161225.0304)
 -->
<!-- Title: static_call_graph Pages: 1 -->
<svg width="270pt" height="762pt" viewBox="0.00 0.00 269.65 762.00" xmlns="http://www.w3.org/2000/svg" xmlns:xlink="http://www.w3.org/1999/xlink">
<g id="graph0" class="graph" transform="scale(1 1) rotate(0) translate(4 758)">
<title>static_call_graph</title>
<polygon fill="#ffffff" stroke="transparent" points="-4,4 -4,-758 265.6535,-758 265.6535,4 -4,4"/>
<!-- main_begin -->
<g id="node1" class="node">
<title>main_begin</title>
<ellipse fill="none" stroke="#000000" cx="144.4116" cy="-736" rx="60.8872" ry="18"/>
<text text-anchor="middle" x="144.4116" y="-731.8" font-family="Arial" font-size="14.00" fill="#000000">main_begin</text>
</g>
<!-- rgbToGrayscale -->
<g id="node2" class="node">
<title>rgbToGrayscale</title>
<polygon fill="none" stroke="#000000" points="154.979,-610.4 39.8442,-610.4 39.8442,-574.4 154.979,-574.4 154.979,-610.4"/>
<text text-anchor="middle" x="97.4116" y="-588.2" font-family="Arial" font-size="14.00" fill="#000000">rgbToGrayscale</text>
</g>
<!-- main_begin&#45;&gt;rgbToGrayscale -->
<g id="edge1" class="edge">
<title>main_begin-&gt;rgbToGrayscale</title>
<path fill="none" stroke="#000000" d="M134.3681,-718.1218C128.781,-707.5791 122.0632,-693.8291 117.5406,-681 110.6351,-661.4117 105.5081,-638.5346 102.1569,-620.9339"/>
<polygon fill="#000000" stroke="#000000" points="105.5345,-619.9447 100.2998,-610.7334 98.6477,-621.1986 105.5345,-619.9447"/>
<text text-anchor="middle" x="148.3471" y="-668.4" font-family="Consolas" font-size="14.00" fill="#000000">image_rgb</text>
<text text-anchor="middle" x="148.3471" y="-651.6" font-family="Consolas" font-size="14.00" fill="#000000">  {6116}</text>
</g>
<!-- convolve2d_smooth -->
<g id="node3" class="node">
<title>convolve2d_smooth</title>
<polygon fill="none" stroke="#000000" points="261.8962,-466.8 120.927,-466.8 120.927,-430.8 261.8962,-430.8 261.8962,-466.8"/>
<text text-anchor="middle" x="191.4116" y="-444.6" font-family="Arial" font-size="14.00" fill="#000000">convolve2d_smooth</text>
</g>
<!-- main_begin&#45;&gt;convolve2d_smooth -->
<g id="edge2" class="edge">
<title>main_begin-&gt;convolve2d_smooth</title>
<path fill="none" stroke="#000000" d="M163.7997,-718.8347C176.7463,-705.4117 191.4116,-685.5048 191.4116,-664.2 191.4116,-664.2 191.4116,-664.2 191.4116,-520.6 191.4116,-506.3818 191.4116,-490.5798 191.4116,-477.428"/>
<polygon fill="#000000" stroke="#000000" points="194.9117,-477.0967 191.4116,-467.0968 187.9117,-477.0968 194.9117,-477.0967"/>
<text text-anchor="middle" x="215.6302" y="-596.6" font-family="Consolas" font-size="14.00" fill="#000000">   output</text>
<text text-anchor="middle" x="215.6302" y="-579.8" font-family="Consolas" font-size="14.00" fill="#000000">  {1529}</text>
</g>
<!-- rgbToGrayscale&#45;&gt;convolve2d_smooth -->
<g id="edge3" class="edge">
<title>rgbToGrayscale-&gt;convolve2d_smooth</title>
<path fill="none" stroke="#000000" d="M96.2285,-574.3178C95.8525,-555.3194 97.7932,-525.2709 111.326,-503.8 119.2909,-491.163 131.3296,-480.6871 143.6701,-472.3894"/>
<polygon fill="#000000" stroke="#000000" points="145.629,-475.2919 152.2155,-466.9931 141.8914,-469.3732 145.629,-475.2919"/>
<text text-anchor="middle" x="144.4544" y="-524.8" font-family="Consolas" font-size="14.00" fill="#000000">image_gray</text>
<text text-anchor="middle" x="144.4544" y="-508" font-family="Consolas" font-size="14.00" fill="#000000">  {1529}</text>
</g>
<!-- convolve2d_fused -->
<g id="node4" class="node">
<title>convolve2d_fused</title>
<polygon fill="none" stroke="#000000" points="128.7349,-323.2 .0883,-323.2 .0883,-287.2 128.7349,-287.2 128.7349,-323.2"/>
<text text-anchor="middle" x="64.4116" y="-301" font-family="Arial" font-size="14.00" fill="#000000">convolve2d_fused</text>
</g>
<!-- rgbToGrayscale&#45;&gt;convolve2d_fused -->
<g id="edge4" class="edge">
<title>rgbToGrayscale-&gt;convolve2d_fused</title>
<path fill="none" stroke="#000000" d="M69.8701,-574.14C54.0971,-561.298 37.4116,-542.5303 37.4116,-520.6 37.4116,-520.6 37.4116,-520.6 37.4116,-377 37.4116,-361.7182 42.8365,-345.7101 48.8229,-332.6974"/>
<polygon fill="#000000" stroke="#000000" points="52.1296,-333.9067 53.4297,-323.3919 45.8562,-330.801 52.1296,-333.9067"/>
<text text-anchor="middle" x="70.4544" y="-453" font-family="Consolas" font-size="14.00" fill="#000000">image_gray</text>
<text text-anchor="middle" x="70.4544" y="-436.2" font-family="Consolas" font-size="14.00" fill="#000000">  {1529}</text>
</g>
<!-- convolve2d_smooth&#45;&gt;convolve2d_fused -->
<g id="edge5" class="edge">
<title>convolve2d_smooth-&gt;convolve2d_fused</title>
<path fill="none" stroke="#000000" d="M168.3552,-430.5699C156.068,-420.3555 141.0419,-407.0377 128.9744,-393.8 111.2339,-374.3391 93.8106,-350.0337 81.5438,-331.805"/>
<polygon fill="#000000" stroke="#000000" points="84.405,-329.7867 75.9573,-323.3924 78.5736,-333.6591 84.405,-329.7867"/>
<text text-anchor="middle" x="153.6302" y="-381.2" font-family="Consolas" font-size="14.00" fill="#000000">   output</text>
<text text-anchor="middle" x="153.6302" y="-364.4" font-family="Consolas" font-size="14.00" fill="#000000">  {1529}</text>
</g>
<!-- combthreshold -->
<g id="node5" class="node">
<title>combthreshold</title>
<polygon fill="none" stroke="#000000" points="151.2084,-179.6 43.6148,-179.6 43.6148,-143.6 151.2084,-143.6 151.2084,-179.6"/>
<text text-anchor="middle" x="97.4116" y="-157.4" font-family="Arial" font-size="14.00" fill="#000000">combthreshold</text>
</g>
<!-- convolve2d_smooth&#45;&gt;combthreshold -->
<g id="edge6" class="edge">
<title>convolve2d_smooth-&gt;combthreshold</title>
<path fill="none" stroke="#000000" d="M191.4116,-430.5032C191.4116,-415.9934 191.4116,-395.1993 191.4116,-377 191.4116,-377 191.4116,-377 191.4116,-233.4 191.4116,-211.9492 175.7613,-196.0496 157.2324,-184.7424"/>
<polygon fill="#000000" stroke="#000000" points="158.6972,-181.5511 148.2632,-179.712 155.273,-187.6564 158.6972,-181.5511"/>
<text text-anchor="middle" x="215.6302" y="-309.4" font-family="Consolas" font-size="14.00" fill="#000000">   output</text>
<text text-anchor="middle" x="215.6302" y="-292.6" font-family="Consolas" font-size="14.00" fill="#000000">  {1529}</text>
</g>
<!-- convolve2d_fused&#45;&gt;combthreshold -->
<g id="edge7" class="edge">
<title>convolve2d_fused-&gt;combthreshold</title>
<path fill="none" stroke="#000000" d="M68.5911,-287.013C74.2445,-262.412 84.3812,-218.3018 91.0011,-189.4954"/>
<polygon fill="#000000" stroke="#000000" points="94.4374,-190.1692 93.2661,-179.6394 87.6152,-188.6014 94.4374,-190.1692"/>
<text text-anchor="middle" x="118.4544" y="-237.6" font-family="Consolas" font-size="14.00" fill="#000000">image_gray</text>
<text text-anchor="middle" x="118.4544" y="-220.8" font-family="Consolas" font-size="14.00" fill="#000000">  {1529}</text>
</g>
<!-- convolve2d_fused&#45;&gt;combthreshold -->
<g id="edge8" class="edge">
<title>convolve2d_fused-&gt;combthreshold</title>
<path fill="none" stroke="#000000" d="M40.524,-287.0129C29.8658,-277.3803 18.4461,-264.572 12.7552,-250.2 7.2573,-236.3155 5.6309,-229.7244 12.7552,-216.6 19.8207,-203.584 31.4453,-193.1682 43.8495,-185.0542"/>
<polygon fill="#000000" stroke="#000000" points="45.7782,-187.978 52.5151,-179.801 42.1493,-181.992 45.7782,-187.978"/>
<text text-anchor="middle" x="43.7398" y="-237.6" font-family="Consolas" font-size="14.00" fill="#000000">  temp_buf</text>
<text text-anchor="middle" x="43.7398" y="-220.8" font-family="Consolas" font-size="14.00" fill="#000000">  {1529}</text>
</g>
<!-- main_end -->
<g id="node6" class="node">
<title>main_end</title>
<ellipse fill="none" stroke="#000000" cx="97.4116" cy="-18" rx="53.3649" ry="18"/>
<text text-anchor="middle" x="97.4116" y="-13.8" font-family="Arial" font-size="14.00" fill="#000000">main_end</text>
</g>
<!-- combthreshold&#45;&gt;main_end -->
<g id="edge9" class="edge">
<title>combthreshold-&gt;main_end</title>
<path fill="none" stroke="#000000" d="M97.4116,-143.413C97.4116,-118.9199 97.4116,-75.0884 97.4116,-46.2753"/>
<polygon fill="#000000" stroke="#000000" points="100.9117,-46.0393 97.4116,-36.0394 93.9117,-46.0394 100.9117,-46.0393"/>
<text text-anchor="middle" x="121.6302" y="-94" font-family="Consolas" font-size="14.00" fill="#000000">  output</text>
<text text-anchor="middle" x="121.6302" y="-77.2" font-family="Consolas" font-size="14.00" fill="#000000">  {1529}</text>
</g>
</g>
</svg>